Coordinates
version=1
nRows=54
nColumns=12
inDegrees=yes

Units are S.I. units (second, meters, Newtons, ...)
Angles are in degrees

endheader
time	SC_y	SC_z	SC_x	AC_y	AC_z	AC_x	GH_y	GH_z	GH_yy	EL_x	PS_y
       0.0              -23.17          31.29          46.26          59.52          2.091        -0.6385          52.28         -2.424          177.6          132.6          59.91
   0.00407              -23.17          31.28          46.26          59.52           2.09        -0.6376          52.26         -2.412          177.6          132.6          59.92
  0.008139              -23.17          31.28          46.26          59.52          2.088        -0.6366          52.24         -2.399          177.6          132.6          59.94
   0.01221              -23.18          31.27          46.26          59.52          2.087        -0.6356          52.22         -2.385          177.6          132.6          59.95
   0.01628              -23.18          31.27          46.26          59.52          2.085        -0.6345           52.2         -2.371          177.5          132.6          59.97
   0.02035              -23.19          31.26          46.26          59.52          2.083        -0.6333          52.17         -2.355          177.5          132.6          59.99
   0.02442              -23.19          31.26          46.26          59.52          2.081        -0.6321          52.15         -2.338          177.5          132.6           60.0
   0.02849               -23.2          31.25          46.26          59.52          2.079        -0.6307          52.12          -2.32          177.5          132.6          60.02
   0.03256               -23.2          31.24          46.26          59.52          2.077        -0.6293          52.09         -2.301          177.4          132.5          60.04
   0.03663              -23.21          31.24          46.26          59.52          2.075        -0.6277          52.05         -2.281          177.4          132.5          60.07
    0.0407              -23.22          31.23          46.27          59.52          2.072        -0.6261          52.02         -2.259          177.4          132.5          60.09
   0.04477              -23.22          31.22          46.27          59.52          2.069        -0.6243          51.98         -2.235          177.3          132.5          60.11
   0.04884              -23.23          31.21          46.27          59.52          2.066        -0.6224          51.94         -2.209          177.3          132.5          60.14
   0.05291              -23.24          31.21          46.27          59.52          2.063        -0.6203           51.9         -2.182          177.3          132.4          60.17
   0.05697              -23.25           31.2          46.27          59.52           2.06        -0.6181          51.85         -2.152          177.2          132.4           60.2
   0.06104              -23.26          31.18          46.27          59.52          2.056        -0.6157           51.8         -2.119          177.2          132.4          60.24
   0.06511              -23.27          31.17          46.27          59.52          2.052         -0.613          51.74         -2.084          177.1          132.4          60.28
   0.06918              -23.28          31.16          46.27          59.52          2.047        -0.6101          51.68         -2.046          177.1          132.3          60.32
   0.07325              -23.29          31.15          46.27          59.52          2.042         -0.607          51.61         -2.004          177.0          132.3          60.36
   0.07732              -23.31          31.13          46.27          59.52          2.037        -0.6036          51.54         -1.958          177.0          132.3          60.41
   0.08139              -23.32          31.11          46.28          59.52          2.031        -0.5998          51.46         -1.907          176.9          132.2          60.46
   0.08546              -23.34           31.1          46.28          59.52          2.025        -0.5956          51.37         -1.852          176.8          132.2          60.52
   0.08953              -23.36          31.08          46.28          59.52          2.018         -0.591          51.27          -1.79          176.7          132.1          60.59
    0.0936              -23.38          31.05          46.28          59.52           2.01        -0.5859          51.16         -1.722          176.6          132.1          60.66
   0.09767               -23.4          31.03          46.28          59.52          2.001        -0.5803          51.04         -1.647          176.5          132.0          60.74
    0.1017              -23.42           31.0          46.29          59.52          1.991         -0.574          50.91         -1.563          176.4          131.9          60.83
    0.1058              -23.45          30.97          46.29          59.52           1.98        -0.5669          50.75         -1.468          176.3          131.9          60.93
    0.1099              -23.48          30.93          46.29          59.53          1.968         -0.559          50.58         -1.362          176.1          131.8          61.05
    0.1139              -23.52          30.89          46.29          59.53          1.954          -0.55          50.39         -1.242          176.0          131.7          61.17
     0.118              -23.56          30.85           46.3          59.53          1.938        -0.5398          50.17         -1.106          175.8          131.6          61.32
    0.1221              -23.61           30.8           46.3          59.53           1.92        -0.5281          49.93        -0.9503          175.6          131.4          61.49
    0.1262              -23.66          30.74          46.31          59.53            1.9        -0.5148          49.64        -0.7718          175.3          131.3          61.68
    0.1302              -23.72          30.67          46.31          59.53          1.876        -0.4993          49.31        -0.5658          175.0          131.1           61.9
    0.1343              -23.79          30.59          46.32          59.53          1.848        -0.4814          48.93        -0.3264          174.7          130.9          62.15
    0.1384              -23.87           30.5          46.33          59.53          1.816        -0.4604          48.48       -0.04624          174.3          130.7          62.45
    0.1424              -23.97          30.39          46.34          59.54          1.777        -0.4357          47.95          0.284          173.9          130.4          62.81
    0.1465              -24.09          30.26          46.35          59.54          1.732        -0.4063          47.32         0.6764          173.3          130.1          63.22
    0.1506              -24.23           30.1          46.36          59.54          1.677        -0.3711          46.57          1.147          172.7          129.7          63.73
    0.1546               -24.4          29.91          46.38          59.54          1.612        -0.3284          45.66          1.716          171.9          129.3          64.34
    0.1587               -24.6          29.68           46.4          59.55          1.531        -0.2764          44.55          2.411          170.9          128.7          65.08
    0.1628              -24.86          29.39          46.43          59.55          1.432        -0.2121          43.17          3.269          169.7          128.0          65.99
    0.1669              -25.18          29.04          46.46          59.56          1.308         -0.132          41.46          4.339          168.2          127.1          67.14
    0.1709              -25.58          28.59           46.5          59.57          1.152       -0.03105           39.3          5.687          166.4          126.0          68.58
     0.175              -26.09          28.02          46.55          59.58         0.9531        0.09727          36.56            7.4          164.0          124.6          70.41
    0.1791              -26.74          27.29          46.61          59.59          0.699         0.2615          33.05          9.593          160.9          122.8          72.75
    0.1831              -27.57          26.36           46.7          59.61          0.373         0.4723          28.55          12.41          157.0          120.5          75.76
    0.1872              -28.64          25.16           46.8          59.63       -0.04339         0.7415          22.79           16.0          152.1          117.6           79.6
    0.1913              -29.98          23.66          46.93          59.66         -0.567           1.08          15.56          20.52          145.8          113.9          84.43
    0.1953              -31.62          21.83          47.09           59.7         -1.205          1.493          6.741          26.03          138.2          109.4          90.31
    0.1994              -33.52          19.71          47.28          59.73         -1.945          1.971         -3.478          32.42          129.3          104.2          97.14
    0.2035              -35.57          17.41          47.48          59.78         -2.746          2.489         -14.54          39.33          119.7          98.51          104.5
    0.2076              -37.62          15.12          47.69          59.82         -3.546          3.006         -25.61          46.24          110.1          92.86          111.9
    0.2116              -39.52          12.99          47.87          59.86         -4.286          3.484         -35.83          52.63          101.3          87.64          118.7
    0.2157              -41.16          11.16          48.04          59.89         -4.924          3.897         -44.64          58.14          93.66          83.14          124.6
